<svg xmlns="http://www.w3.org/2000/svg" viewBox="0 0 90 90"><defs><style>.cls-5{fill:#eef3f6}.cls-2{fill:#91b1bc}.cls-2,.cls-3,.cls-5,.cls-6{stroke:#28202b;stroke-miterlimit:10;stroke-width:.65px}.cls-3{fill:#fff}.cls-6{fill:#e4dbc9}</style></defs><circle cx="45" cy="45" r="35" transform="rotate(-84.72 44.996 44.996)" fill="#eef3f6"/><path class="cls-2" d="M62.22 45.29v-8.22a2.34 2.34 0 0 0-2.34-2.34H30.12a2.34 2.34 0 0 0-2.34 2.34v8.21"/><path class="cls-3" d="M20.4 57.77h-3a.56.56 0 0 0-.34.11l-14.83 11a.56.56 0 0 0 .34 1h84.9a.56.56 0 0 0 .34-1L73 57.88a.56.56 0 0 0-.34-.11h-3"/><path class="cls-2" d="M69.4 59.77h2.74l10.95 8.1H6.91l10.95-8.1h2.74"/><path d="M62.22 45.29H27.78l-6.61 3.89a2 2 0 0 0-1 1.72v7.89a2 2 0 0 0 2 2h45.64a2 2 0 0 0 2-2V50.9a2 2 0 0 0-1-1.72z" fill="#c6d9dd" stroke="#28202b" stroke-miterlimit="10" stroke-width=".65"/><path class="cls-2" d="M20.69 49.75h48.62"/><path class="cls-5" d="M25.05 60.79h2.59v3.03h-2.59zm37.31 0h2.59v3.03h-2.59z"/><path class="cls-3" d="M43.64 42.63a13.07 13.07 0 0 1 .36-3 .67.67 0 0 0-.74-.84 44.9 44.9 0 0 1-12 0 .67.67 0 0 0-.74.84 13.06 13.06 0 0 1 .36 3 13.06 13.06 0 0 1-.36 3 .67.67 0 0 0 .74.84 44.91 44.91 0 0 1 12 0 .67.67 0 0 0 .74-.84 13.06 13.06 0 0 1-.36-3z"/><path class="cls-5" d="M59.83 42.63a13.07 13.07 0 0 1 .36-3 .67.67 0 0 0-.74-.84 44.9 44.9 0 0 1-12 0 .67.67 0 0 0-.74.84 13.06 13.06 0 0 1 .36 3 13.06 13.06 0 0 1-.36 3 .67.67 0 0 0 .74.84 44.91 44.91 0 0 1 12 0 .67.67 0 0 0 .74-.84 13.06 13.06 0 0 1-.36-3z"/><path class="cls-3" d="M59.83 42.63a13.07 13.07 0 0 1 .36-3 .67.67 0 0 0-.74-.84 44.9 44.9 0 0 1-12 0 .67.67 0 0 0-.74.84 13.06 13.06 0 0 1 .36 3 13.06 13.06 0 0 1-.36 3 .67.67 0 0 0 .74.84 44.91 44.91 0 0 1 12 0 .67.67 0 0 0 .74-.84 13.06 13.06 0 0 1-.36-3z"/><path class="cls-3" d="M49.26 44.78a8.71 8.71 0 0 1 .24-2 .45.45 0 0 0-.49-.56 29.94 29.94 0 0 1-8 0 .45.45 0 0 0-.49.56 8.7 8.7 0 0 1 .24 2 8.71 8.71 0 0 1-.24 2 .45.45 0 0 0 .49.56 29.94 29.94 0 0 1 8 0 .45.45 0 0 0 .49-.56 8.71 8.71 0 0 1-.24-2z"/><path class="cls-2" d="M81.94 43.77c0-.73 1.43-1.81 1.43-3.39a3 3 0 0 0-6 0c0 1.58 1.43 2.66 1.43 3.39"/><path class="cls-3" d="M72.26 43.95H88.5v1.76H72.26z"/><path class="cls-6" d="M73.37 45.7v15.1h1.3l.86-2.3h9.7l.86 2.3h1.3V45.7H73.37z"/><path class="cls-3" d="M75.14 47.58h10.48v3.94H75.14zm0 5.1h10.48v3.94H75.14z"/><circle class="cls-6" cx="80.38" cy="49.55" r=".64"/><circle class="cls-6" cx="80.38" cy="54.65" r=".64"/><path class="cls-3" d="M76.01 30.24h8.74v7.15h-8.74z"/><path class="cls-2" d="M11.17 43.81c0-.73 1.43-1.81 1.43-3.39a3 3 0 1 0-6 0c0 1.58 1.43 2.66 1.43 3.39"/><path class="cls-3" d="M1.5 43.98h16.24v1.76H1.5z"/><path class="cls-6" d="M2.6 45.74v15.09h1.31l.86-2.29h9.7l.85 2.29h1.31V45.74H2.6z"/><path class="cls-3" d="M4.38 47.62h10.48v3.94H4.38zm0 5.1h10.48v3.94H4.38z"/><circle class="cls-6" cx="9.62" cy="49.59" r=".64"/><circle class="cls-6" cx="9.62" cy="54.69" r=".64"/><path class="cls-3" d="M5.25 30.28h8.74v7.15H5.25zm77.61 30.55h5.86m-87.44 0h5.86"/><path fill="none" d="M0 0h90v90H0z"/></svg>