<svg id="Capa_1" enable-background="new 0 0 512 512" height="512" viewBox="0 0 512 512" width="512" xmlns="http://www.w3.org/2000/svg"><g fill="#9edb2c"><path d="m120.07 44.616h30v43.498h-30z"/><path d="m62.074 105.444h32.998v30h-32.998z"/><path d="m367.058 0h30v40.03h-30z"/></g><path d="m434.279 48.023c-16.572-16.571-39.451-24.808-62.786-22.59-23.31 2.213-44.222 14.587-57.381 33.951l-57.779 83.814 82.286 63.711 9.72 13.803 74.644-52.567c19.328-13.162 31.676-34.053 33.886-57.337 2.215-23.331-6.019-46.215-22.59-62.785z" fill="#c4e83b"/><path d="m179.166 88.844c-8.843-13.032-22.906-21.36-38.584-22.848-15.688-1.485-31.057 4.046-42.191 15.181-11.136 11.135-16.67 26.514-15.182 42.192 1.487 15.678 9.815 29.741 22.879 38.604l68.521 46.241 6.922-10.257 43.066-42.677z" fill="#c4e83b"/><path d="m131 224.78h41.406v30h-41.406z" fill="#69b921"/><path d="m134 282.778h41.407v30h-41.407z" fill="#69b921"/><path d="m334.99 300.777h41.406v30h-41.406z" fill="#9edb2c"/><path d="m441.401 115.147h30.001v42.092h-30.001z" fill="#c4e83b" transform="matrix(.463 -.886 .886 .463 124.275 477.576)"/><path d="m434.062 47.811-128.455 133.537 33.013 25.561 9.72 13.803 74.644-52.567c19.328-13.162 31.676-34.053 33.886-57.337 2.214-23.33-6.02-46.214-22.59-62.785-.072-.072-.146-.141-.218-.212z" fill="#9edb2c"/><path d="m328.511 168.128c-18.646-20.128-45.074-31.672-72.511-31.672s-53.865 11.544-72.511 31.672c-18.645 20.128-28.136 47.362-26.037 74.747l13.094 166.581 171.915-.089 12.089-166.521c2.097-27.356-7.395-54.59-26.039-74.718z" fill="#9edb2c"/><path d="m328.511 168.128c-18.646-20.128-45.074-31.672-72.511-31.672v273l86.461-.089 12.089-166.521c2.097-27.356-7.395-54.59-26.039-74.718z" fill="#69b921"/><path d="m328.511 168.128c-18.646-20.128-45.074-31.672-72.511-31.672s-53.865 11.544-72.511 31.672c-18.645 20.128-28.136 47.362-26.037 74.747l13.094 166.581 171.915-.089 12.089-166.521c2.097-27.356-7.395-54.59-26.039-74.718z" fill="#9edb2c"/><path d="m328.511 168.128c-18.646-20.128-45.074-31.672-72.511-31.672v273l86.461-.089 12.089-166.521c2.097-27.356-7.395-54.59-26.039-74.718z" fill="#69b921"/><path d="m512 512h-512v-136.213h16.518c62.143 0 93.773 8.356 124.361 16.437 30.067 7.943 58.466 15.446 116.728 15.446 58.236 0 86.225-7.496 115.857-15.432 30.196-8.087 61.421-16.45 123.59-16.45h14.946z" fill="#fee46f"/><path d="m497.055 375.787c-62.169 0-93.394 8.363-123.591 16.45-29.632 7.936-57.622 15.432-115.857 15.432-.883 0-1.738-.007-2.607-.01v104.341h257v-136.213z" fill="#fed330"/></svg>