<svg xmlns="http://www.w3.org/2000/svg" height="512pt" version="1.1" viewBox="0 0 512 512" width="512pt">
<g id="surface1">
<path d="M 512 256 C 512 397.386719 397.386719 512 256 512 C 114.613281 512 0 397.386719 0 256 C 0 114.613281 114.613281 0 256 0 C 397.386719 0 512 114.613281 512 256 Z M 512 256 " style=" stroke:none;fill-rule:nonzero;fill:rgb(100%,91.372549%,33.333333%);fill-opacity:1;" />
<path d="M 512 256 C 512 282.050781 508.109375 307.191406 500.871094 330.871094 C 495.839844 347.339844 489.199219 363.101562 481.121094 377.980469 C 472.871094 393.179688 463.121094 407.441406 452.070312 420.589844 C 451.488281 421.28125 450.910156 421.96875 450.320312 422.648438 C 413.789062 465.21875 363.5 495.648438 306.359375 507.039062 C 290.070312 510.300781 273.230469 512 256 512 C 204.109375 512 155.820312 496.558594 115.488281 470.011719 C 95.398438 456.800781 77.300781 440.828125 61.699219 422.660156 L 61.691406 422.648438 C 61.101562 421.960938 60.511719 421.269531 59.941406 420.578125 C 48.878906 407.441406 39.128906 393.179688 30.890625 377.980469 C 27.601562 371.949219 24.558594 365.769531 21.769531 359.449219 C 19.109375 353.441406 16.671875 347.300781 14.46875 341.058594 C 5.101562 314.449219 0 285.820312 0 256 C 0 209.78125 12.25 166.429688 33.679688 129 C 77.800781 206.070312 160.839844 258 256 258 C 351.160156 258 434.210938 206.070312 478.320312 129 C 499.75 166.429688 512 209.78125 512 256 Z M 512 256 " style=" stroke:none;fill-rule:nonzero;fill:rgb(100%,81.960784%,7.058824%);fill-opacity:1;" />
<path d="M 481.121094 377.980469 C 472.871094 393.179688 463.121094 407.441406 452.070312 420.589844 C 451.488281 421.28125 450.910156 421.96875 450.320312 422.648438 C 403.378906 477.351562 333.730469 512 256 512 C 178.269531 512 108.621094 477.351562 61.691406 422.648438 C 61.101562 421.960938 60.511719 421.269531 59.941406 420.578125 C 48.878906 407.441406 39.128906 393.179688 30.890625 377.980469 Z M 481.121094 377.980469 " style=" stroke:none;fill-rule:nonzero;fill:rgb(39.607843%,69.803922%,100%);fill-opacity:1;" />
<path d="M 452.070312 420.589844 C 451.488281 421.28125 450.910156 421.96875 450.320312 422.648438 C 413.789062 465.21875 363.5 495.648438 306.359375 507.039062 L 306.359375 507.050781 C 290.070312 510.300781 273.230469 512 256 512 C 254.789062 512 253.570312 511.988281 252.359375 511.96875 C 251.148438 511.960938 249.941406 511.929688 248.738281 511.898438 C 248.730469 511.898438 248.730469 511.898438 248.730469 511.898438 C 247.519531 511.871094 246.320312 511.820312 245.128906 511.769531 C 241.511719 511.621094 237.910156 511.398438 234.339844 511.101562 C 233.441406 511.019531 232.539062 510.941406 231.640625 510.851562 C 231.550781 510.851562 231.46875 510.839844 231.378906 510.828125 C 230.808594 510.78125 230.25 510.71875 229.691406 510.660156 C 227.820312 510.46875 225.949219 510.261719 224.101562 510.03125 C 223.601562 509.96875 223.101562 509.910156 222.601562 509.839844 C 221.910156 509.75 221.210938 509.660156 220.519531 509.558594 C 220.25 509.519531 219.980469 509.488281 219.710938 509.449219 C 218.960938 509.339844 218.199219 509.230469 217.441406 509.109375 C 212.839844 508.421875 208.269531 507.601562 203.761719 506.660156 C 203.308594 506.570312 202.871094 506.480469 202.429688 506.378906 C 200.289062 505.929688 198.160156 505.449219 196.050781 504.941406 C 194.910156 504.671875 193.789062 504.390625 192.660156 504.101562 C 192.628906 504.101562 192.609375 504.089844 192.578125 504.078125 C 191.738281 503.871094 190.890625 503.648438 190.050781 503.421875 C 189.898438 503.378906 189.738281 503.339844 189.578125 503.289062 C 188.359375 502.96875 187.148438 502.640625 185.941406 502.300781 C 185.910156 502.289062 185.878906 502.28125 185.851562 502.269531 C 184.371094 501.839844 182.878906 501.410156 181.410156 500.960938 C 179.511719 500.378906 177.628906 499.789062 175.75 499.160156 C 174.738281 498.839844 173.738281 498.5 172.738281 498.148438 C 171.980469 497.890625 171.21875 497.628906 170.460938 497.351562 C 169.730469 497.101562 169.011719 496.839844 168.289062 496.570312 C 166.851562 496.050781 165.421875 495.511719 163.988281 494.960938 C 162.558594 494.410156 161.140625 493.851562 159.71875 493.269531 C 158.308594 492.699219 156.898438 492.109375 155.5 491.511719 C 154.191406 490.949219 152.890625 490.378906 151.589844 489.800781 C 151.421875 489.730469 151.25 489.660156 151.078125 489.570312 C 149.820312 489 148.558594 488.421875 147.300781 487.839844 C 147.25 487.820312 147.210938 487.800781 147.160156 487.769531 C 145.789062 487.121094 144.421875 486.460938 143.058594 485.789062 C 141.691406 485.128906 140.339844 484.441406 138.988281 483.738281 C 138.320312 483.398438 137.640625 483.050781 136.96875 482.691406 C 135.628906 481.988281 134.300781 481.28125 132.96875 480.539062 C 132.300781 480.171875 131.640625 479.800781 130.980469 479.429688 C 129.660156 478.691406 128.351562 477.941406 127.039062 477.179688 C 126.390625 476.800781 125.738281 476.421875 125.089844 476.03125 C 124.441406 475.648438 123.789062 475.261719 123.148438 474.859375 C 122.019531 474.171875 120.910156 473.480469 119.789062 472.78125 C 119.410156 472.550781 119.039062 472.308594 118.671875 472.070312 C 117.601562 471.390625 116.550781 470.699219 115.488281 470.011719 C 114.230469 469.179688 112.988281 468.351562 111.75 467.5 C 110.570312 466.699219 109.398438 465.878906 108.238281 465.070312 C 108.039062 464.929688 107.851562 464.789062 107.660156 464.648438 C 106.78125 464.019531 105.898438 463.390625 105.03125 462.75 C 103.578125 461.691406 102.140625 460.621094 100.71875 459.53125 C 99.609375 458.679688 98.511719 457.820312 97.410156 456.960938 C 97.300781 456.878906 97.199219 456.789062 97.089844 456.699219 C 95.96875 455.820312 94.859375 454.921875 93.761719 454.011719 C 92.628906 453.089844 91.511719 452.148438 90.398438 451.210938 C 90.371094 451.191406 90.339844 451.160156 90.308594 451.128906 C 89.171875 450.160156 88.039062 449.191406 86.921875 448.199219 C 86.921875 448.199219 86.910156 448.199219 86.898438 448.179688 C 85.78125 447.199219 84.671875 446.199219 83.570312 445.191406 C 82.480469 444.199219 81.398438 443.210938 80.328125 442.199219 C 80.308594 442.179688 80.289062 442.160156 80.269531 442.140625 C 79.230469 441.160156 78.199219 440.171875 77.179688 439.171875 C 77.078125 439.078125 76.980469 438.980469 76.878906 438.871094 C 76.050781 438.058594 75.230469 437.238281 74.410156 436.421875 C 74.039062 436.050781 73.660156 435.671875 73.300781 435.289062 C 72.351562 434.328125 71.421875 433.371094 70.5 432.390625 C 69.539062 431.390625 68.589844 430.378906 67.660156 429.359375 C 66.789062 428.421875 65.929688 427.46875 65.089844 426.519531 C 63.941406 425.25 62.808594 423.960938 61.699219 422.660156 L 61.691406 422.648438 C 61.101562 421.960938 60.511719 421.269531 59.941406 420.578125 C 62.871094 420.121094 66.140625 419.859375 69.859375 419.859375 C 100.878906 419.859375 100.878906 438.078125 131.898438 438.078125 C 162.929688 438.078125 162.929688 419.859375 193.949219 419.859375 C 224.96875 419.859375 224.96875 438.078125 255.988281 438.078125 C 262.648438 438.078125 267.878906 437.238281 272.300781 435.910156 C 288.441406 431.089844 293.671875 419.859375 318.039062 419.859375 C 349.058594 419.859375 349.058594 438.078125 380.078125 438.078125 C 411.109375 438.078125 411.109375 419.859375 442.128906 419.859375 C 445.851562 419.859375 449.128906 420.121094 452.070312 420.589844 Z M 452.070312 420.589844 " style=" stroke:none;fill-rule:nonzero;fill:rgb(5.882353%,60.784314%,90.980392%);fill-opacity:1;" />
<path d="M 477.074219 308.53125 C 477.074219 308.457031 477.078125 308.382812 477.078125 308.304688 C 477.078125 294.460938 465.855469 283.234375 452.011719 283.234375 C 448.722656 283.234375 445.582031 283.875 442.703125 285.027344 C 437.144531 275.066406 426.507812 268.328125 414.289062 268.328125 C 398.425781 268.328125 385.222656 279.691406 382.351562 294.71875 C 381.496094 294.597656 380.625 294.527344 379.734375 294.527344 C 371.109375 294.527344 363.882812 300.5 361.953125 308.53125 Z M 477.074219 308.53125 " style=" stroke:none;fill-rule:nonzero;fill:rgb(100%,100%,100%);fill-opacity:1;" />
<path d="M 452.613281 308.53125 C 452.613281 308.488281 452.617188 308.445312 452.617188 308.402344 C 452.617188 300.441406 446.160156 293.984375 438.199219 293.984375 C 436.308594 293.984375 434.503906 294.355469 432.847656 295.015625 C 429.652344 289.289062 423.535156 285.414062 416.511719 285.414062 C 407.390625 285.414062 399.796875 291.945312 398.144531 300.589844 C 397.652344 300.519531 397.152344 300.480469 396.640625 300.480469 C 391.679688 300.480469 387.523438 303.910156 386.414062 308.53125 Z M 452.613281 308.53125 " style=" stroke:none;fill-rule:nonzero;fill:rgb(81.568627%,96.470588%,100%);fill-opacity:1;" />
<path d="M 330.054688 174.421875 C 330.050781 174.339844 330.046875 174.257812 330.046875 174.175781 C 330.046875 159.058594 342.300781 146.804688 357.417969 146.804688 C 361.007812 146.804688 364.433594 147.503906 367.574219 148.761719 C 373.644531 137.890625 385.257812 130.53125 398.59375 130.53125 C 415.914062 130.53125 430.328125 142.933594 433.460938 159.339844 C 434.394531 159.207031 435.347656 159.132812 436.320312 159.132812 C 445.734375 159.132812 453.625 165.652344 455.734375 174.421875 Z M 330.054688 174.421875 " style=" stroke:none;fill-rule:nonzero;fill:rgb(100%,100%,100%);fill-opacity:1;" />
<path d="M 356.757812 174.421875 C 356.757812 174.375 356.753906 174.328125 356.753906 174.28125 C 356.753906 165.589844 363.800781 158.542969 372.492188 158.542969 C 374.558594 158.542969 376.527344 158.945312 378.335938 159.667969 C 381.824219 153.414062 388.503906 149.183594 396.171875 149.183594 C 406.128906 149.183594 414.417969 156.316406 416.21875 165.75 C 416.757812 165.671875 417.304688 165.632812 417.863281 165.632812 C 423.277344 165.632812 427.8125 169.378906 429.027344 174.421875 Z M 356.757812 174.421875 " style=" stroke:none;fill-rule:nonzero;fill:rgb(81.568627%,96.470588%,100%);fill-opacity:1;" />
<path d="M 252.746094 105.824219 C 252.746094 105.742188 252.75 105.660156 252.75 105.578125 C 252.75 90.460938 240.496094 78.210938 225.382812 78.210938 C 221.789062 78.210938 218.363281 78.90625 215.222656 80.164062 C 209.152344 69.292969 197.539062 61.933594 184.203125 61.933594 C 166.886719 61.933594 152.46875 74.339844 149.335938 90.742188 C 148.402344 90.609375 147.449219 90.535156 146.476562 90.535156 C 137.0625 90.535156 129.171875 97.054688 127.0625 105.824219 Z M 252.746094 105.824219 " style=" stroke:none;fill-rule:nonzero;fill:rgb(100%,100%,100%);fill-opacity:1;" />
<path d="M 226.039062 105.824219 C 226.039062 105.777344 226.042969 105.730469 226.042969 105.683594 C 226.042969 96.992188 218.996094 89.945312 210.304688 89.945312 C 208.238281 89.945312 206.269531 90.347656 204.464844 91.070312 C 200.972656 84.816406 194.296875 80.585938 186.628906 80.585938 C 176.667969 80.585938 168.378906 87.71875 166.578125 97.152344 C 166.039062 97.074219 165.492188 97.035156 164.933594 97.035156 C 159.519531 97.035156 154.984375 100.78125 153.769531 105.824219 Z M 226.039062 105.824219 " style=" stroke:none;fill-rule:nonzero;fill:rgb(81.568627%,96.470588%,100%);fill-opacity:1;" />
<path d="M 175.023438 235.578125 L 198.015625 222.253906 L 203.132812 200.144531 L 224.863281 206.691406 L 256.117188 188.570312 L 261.238281 166.460938 L 282.96875 173.007812 L 305.957031 159.683594 C 280.828125 138.078125 243.820312 133.578125 213.535156 151.136719 C 183.253906 168.6875 168.765625 203.039062 175.023438 235.578125 Z M 175.023438 235.578125 " style=" stroke:none;fill-rule:nonzero;fill:rgb(0%,62.745098%,25.882353%);fill-opacity:1;" />
<path d="M 172.894531 231.394531 L 195.730469 242.339844 L 215.886719 234.503906 L 222.394531 255.128906 L 253.4375 270.011719 L 273.597656 262.175781 L 280.105469 282.796875 L 302.9375 293.746094 C 306.460938 262.367188 290.140625 230.8125 260.058594 216.386719 C 229.980469 201.96875 195.160156 209 172.894531 231.394531 Z M 172.894531 231.394531 " style=" stroke:none;fill-rule:nonzero;fill:rgb(42.352941%,86.27451%,17.647059%);fill-opacity:1;" />
<path d="M 175.859375 231.511719 L 152.835938 218.164062 L 147.710938 196.019531 L 125.945312 202.578125 L 94.644531 184.433594 L 89.515625 162.289062 L 67.753906 168.84375 L 44.730469 155.5 C 69.894531 133.863281 106.957031 129.355469 137.289062 146.9375 C 167.621094 164.519531 182.128906 198.921875 175.859375 231.511719 Z M 175.859375 231.511719 " style=" stroke:none;fill-rule:nonzero;fill:rgb(42.352941%,86.27451%,17.647059%);fill-opacity:1;" />
<path d="M 179.246094 231.394531 L 156.414062 242.339844 L 136.257812 234.503906 L 129.746094 255.128906 L 98.703125 270.011719 L 78.546875 262.175781 L 72.039062 282.800781 L 49.207031 293.746094 C 45.683594 262.367188 62.003906 230.8125 92.085938 216.390625 C 122.164062 201.96875 156.984375 209 179.246094 231.394531 Z M 179.246094 231.394531 " style=" stroke:none;fill-rule:nonzero;fill:rgb(0%,62.745098%,25.882353%);fill-opacity:1;" />
<path d="M 191.339844 398.925781 L 158.636719 398.925781 C 158.78125 392.851562 158.949219 386.925781 159.132812 381.164062 C 159.164062 380.09375 159.199219 379.027344 159.238281 377.964844 C 159.375 373.90625 159.519531 369.921875 159.671875 366.015625 C 159.710938 364.941406 159.75 363.878906 159.789062 362.8125 C 159.949219 358.738281 160.125 354.753906 160.300781 350.855469 C 160.351562 349.78125 160.40625 348.710938 160.453125 347.652344 C 160.644531 343.570312 160.855469 339.585938 161.0625 335.695312 C 161.117188 334.613281 161.175781 333.550781 161.238281 332.492188 C 161.460938 328.402344 161.703125 324.414062 161.941406 320.535156 C 162.007812 319.460938 162.078125 318.390625 162.140625 317.332031 C 162.40625 313.226562 162.679688 309.238281 162.957031 305.375 C 163.039062 304.292969 163.117188 303.230469 163.191406 302.171875 C 163.503906 298.050781 163.8125 294.066406 164.132812 290.214844 C 164.222656 289.132812 164.308594 288.070312 164.398438 287.015625 C 164.75 282.867188 165.109375 278.882812 165.46875 275.054688 C 165.566406 273.976562 165.671875 272.910156 165.773438 271.855469 C 166.183594 267.675781 166.589844 263.691406 167 259.894531 C 167.117188 258.816406 167.230469 257.742188 167.351562 256.695312 C 167.824219 252.460938 168.285156 248.472656 168.761719 244.734375 C 168.886719 243.640625 169.023438 242.574219 169.160156 241.535156 C 169.710938 237.195312 170.257812 233.21875 170.785156 229.578125 C 170.9375 228.472656 171.097656 227.40625 171.25 226.375 C 174.152344 206.878906 176.378906 198.171875 176.378906 198.171875 C 177.90625 207.519531 179.285156 216.957031 180.515625 226.375 C 180.652344 227.441406 180.796875 228.511719 180.925781 229.578125 C 181.4375 233.570312 181.925781 237.566406 182.382812 241.535156 C 182.511719 242.605469 182.628906 243.671875 182.75 244.734375 C 183.207031 248.746094 183.628906 252.730469 184.039062 256.695312 C 184.152344 257.765625 184.253906 258.832031 184.359375 259.894531 C 184.765625 263.914062 185.144531 267.898438 185.503906 271.855469 C 185.601562 272.925781 185.6875 273.992188 185.785156 275.054688 C 186.136719 279.089844 186.472656 283.074219 186.777344 287.015625 C 186.863281 288.085938 186.945312 289.160156 187.023438 290.214844 C 187.335938 294.265625 187.625 298.25 187.886719 302.171875 C 187.960938 303.246094 188.03125 304.308594 188.105469 305.375 C 188.367188 309.441406 188.617188 313.433594 188.839844 317.332031 C 188.902344 318.40625 188.960938 319.476562 189.023438 320.535156 C 189.246094 324.632812 189.449219 328.617188 189.640625 332.492188 C 189.6875 333.574219 189.742188 334.636719 189.792969 335.695312 C 189.976562 339.832031 190.144531 343.816406 190.289062 347.652344 C 190.335938 348.734375 190.375 349.796875 190.40625 350.855469 C 190.558594 355.0625 190.6875 359.058594 190.792969 362.8125 C 190.832031 363.902344 190.855469 364.964844 190.886719 366.015625 C 191 370.367188 191.089844 374.371094 191.152344 377.964844 C 191.167969 379.070312 191.191406 380.140625 191.199219 381.164062 C 191.382812 392.417969 191.339844 398.925781 191.339844 398.925781 Z M 191.339844 398.925781 " style=" stroke:none;fill-rule:nonzero;fill:rgb(100%,62.352941%,0%);fill-opacity:1;" />
<path d="M 191.339844 398.925781 L 176.382812 398.925781 L 176.382812 198.175781 C 177.910156 207.523438 179.285156 216.960938 180.519531 226.378906 C 180.65625 227.445312 180.800781 228.515625 180.929688 229.582031 C 181.441406 233.574219 181.929688 237.570312 182.386719 241.539062 C 182.511719 242.609375 182.632812 243.675781 182.753906 244.738281 C 183.210938 248.75 183.632812 252.734375 184.042969 256.699219 C 184.152344 257.769531 184.257812 258.835938 184.363281 259.898438 C 184.769531 263.917969 185.144531 267.902344 185.507812 271.859375 C 185.601562 272.929688 185.691406 273.996094 185.785156 275.058594 C 186.140625 279.09375 186.476562 283.078125 186.777344 287.019531 C 186.867188 288.089844 186.945312 289.164062 187.027344 290.21875 C 187.339844 294.269531 187.628906 298.253906 187.890625 302.175781 C 187.964844 303.25 188.035156 304.3125 188.105469 305.378906 C 188.371094 309.445312 188.617188 313.4375 188.84375 317.335938 C 188.90625 318.410156 188.964844 319.480469 189.027344 320.539062 C 189.25 324.636719 189.449219 328.621094 189.644531 332.496094 C 189.691406 333.578125 189.746094 334.640625 189.796875 335.699219 C 189.980469 339.835938 190.148438 343.820312 190.289062 347.65625 C 190.339844 348.738281 190.378906 349.800781 190.410156 350.859375 C 190.5625 355.066406 190.691406 359.0625 190.796875 362.816406 C 190.835938 363.90625 190.859375 364.96875 190.890625 366.019531 C 191.003906 370.371094 191.089844 374.375 191.15625 377.96875 C 191.171875 379.074219 191.195312 380.144531 191.203125 381.167969 C 191.382812 392.417969 191.339844 398.925781 191.339844 398.925781 Z M 191.339844 398.925781 " style=" stroke:none;fill-rule:nonzero;fill:rgb(92.156863%,46.666667%,13.333333%);fill-opacity:1;" />
<path d="M 180.929688 229.582031 L 170.785156 229.582031 C 170.9375 228.476562 171.097656 227.414062 171.25 226.382812 L 180.519531 226.382812 C 180.65625 227.445312 180.800781 228.515625 180.929688 229.582031 Z M 180.929688 229.582031 " style=" stroke:none;fill-rule:nonzero;fill:rgb(65.098039%,22.352941%,7.843137%);fill-opacity:1;" />
<path d="M 182.753906 244.742188 L 168.761719 244.742188 C 168.890625 243.644531 169.027344 242.578125 169.160156 241.539062 L 182.382812 241.539062 C 182.511719 242.613281 182.632812 243.675781 182.753906 244.742188 Z M 182.753906 244.742188 " style=" stroke:none;fill-rule:nonzero;fill:rgb(65.098039%,22.352941%,7.843137%);fill-opacity:1;" />
<path d="M 184.363281 259.898438 L 167.003906 259.898438 C 167.121094 258.820312 167.234375 257.746094 167.355469 256.699219 L 184.042969 256.699219 C 184.152344 257.769531 184.257812 258.835938 184.363281 259.898438 Z M 184.363281 259.898438 " style=" stroke:none;fill-rule:nonzero;fill:rgb(65.098039%,22.352941%,7.843137%);fill-opacity:1;" />
<path d="M 185.785156 275.058594 L 165.472656 275.058594 C 165.570312 273.976562 165.671875 272.914062 165.777344 271.855469 L 185.507812 271.855469 C 185.601562 272.929688 185.691406 273.996094 185.785156 275.058594 Z M 185.785156 275.058594 " style=" stroke:none;fill-rule:nonzero;fill:rgb(65.098039%,22.352941%,7.843137%);fill-opacity:1;" />
<path d="M 187.027344 290.21875 L 164.136719 290.21875 C 164.222656 289.136719 164.3125 288.074219 164.398438 287.015625 L 186.777344 287.015625 C 186.867188 288.089844 186.945312 289.160156 187.027344 290.21875 Z M 187.027344 290.21875 " style=" stroke:none;fill-rule:nonzero;fill:rgb(65.098039%,22.352941%,7.843137%);fill-opacity:1;" />
<path d="M 188.105469 305.378906 L 162.960938 305.378906 C 163.039062 304.296875 163.121094 303.230469 163.191406 302.175781 L 187.890625 302.175781 C 187.964844 303.246094 188.035156 304.3125 188.105469 305.378906 Z M 188.105469 305.378906 " style=" stroke:none;fill-rule:nonzero;fill:rgb(65.098039%,22.352941%,7.843137%);fill-opacity:1;" />
<path d="M 189.027344 320.535156 L 161.941406 320.535156 C 162.007812 319.464844 162.078125 318.390625 162.144531 317.335938 L 188.84375 317.335938 C 188.90625 318.40625 188.964844 319.480469 189.027344 320.535156 Z M 189.027344 320.535156 " style=" stroke:none;fill-rule:nonzero;fill:rgb(65.098039%,22.352941%,7.843137%);fill-opacity:1;" />
<path d="M 189.796875 335.695312 L 161.0625 335.695312 C 161.117188 334.613281 161.175781 333.550781 161.238281 332.492188 L 189.644531 332.492188 C 189.691406 333.574219 189.746094 334.640625 189.796875 335.695312 Z M 189.796875 335.695312 " style=" stroke:none;fill-rule:nonzero;fill:rgb(65.098039%,22.352941%,7.843137%);fill-opacity:1;" />
<path d="M 190.414062 350.855469 L 160.304688 350.855469 C 160.351562 349.78125 160.40625 348.710938 160.453125 347.652344 L 190.292969 347.652344 C 190.339844 348.734375 190.378906 349.796875 190.414062 350.855469 Z M 190.414062 350.855469 " style=" stroke:none;fill-rule:nonzero;fill:rgb(65.098039%,22.352941%,7.843137%);fill-opacity:1;" />
<path d="M 190.894531 366.015625 L 159.671875 366.015625 C 159.710938 364.941406 159.75 363.878906 159.789062 362.8125 L 190.796875 362.8125 C 190.835938 363.902344 190.859375 364.964844 190.894531 366.015625 Z M 190.894531 366.015625 " style=" stroke:none;fill-rule:nonzero;fill:rgb(65.098039%,22.352941%,7.843137%);fill-opacity:1;" />
<path d="M 191.203125 381.164062 L 159.132812 381.164062 C 159.164062 380.09375 159.199219 379.027344 159.238281 377.964844 L 191.15625 377.964844 C 191.171875 379.066406 191.195312 380.140625 191.203125 381.164062 Z M 191.203125 381.164062 " style=" stroke:none;fill-rule:nonzero;fill:rgb(65.098039%,22.352941%,7.843137%);fill-opacity:1;" />
<path d="M 306.359375 507.039062 L 306.359375 507.050781 C 290.070312 510.300781 273.230469 512 256 512 C 254.789062 512 253.570312 511.988281 252.359375 511.96875 C 251.148438 511.960938 249.941406 511.929688 248.738281 511.898438 C 248.730469 511.898438 248.730469 511.898438 248.730469 511.898438 C 247.519531 511.871094 246.320312 511.820312 245.128906 511.769531 C 241.511719 511.621094 237.910156 511.398438 234.339844 511.101562 C 233.441406 511.019531 232.539062 510.941406 231.640625 510.851562 C 231.550781 510.851562 231.46875 510.839844 231.378906 510.828125 C 230.808594 510.78125 230.25 510.71875 229.691406 510.660156 C 227.820312 510.46875 225.949219 510.261719 224.101562 510.03125 C 223.601562 509.96875 223.101562 509.910156 222.601562 509.839844 C 221.910156 509.75 221.210938 509.660156 220.519531 509.558594 C 220.25 509.519531 219.980469 509.488281 219.710938 509.449219 C 218.960938 509.339844 218.199219 509.230469 217.441406 509.109375 C 216.800781 509.011719 216.171875 508.921875 215.539062 508.808594 C 211.578125 508.191406 207.648438 507.46875 203.761719 506.660156 C 203.308594 506.570312 202.871094 506.480469 202.429688 506.378906 C 200.289062 505.929688 198.160156 505.449219 196.050781 504.941406 C 194.910156 504.671875 193.789062 504.390625 192.660156 504.101562 C 192.628906 504.101562 192.609375 504.089844 192.578125 504.078125 C 191.738281 503.871094 190.890625 503.648438 190.050781 503.421875 C 189.898438 503.378906 189.738281 503.339844 189.578125 503.289062 C 188.359375 502.96875 187.148438 502.640625 185.941406 502.300781 C 185.910156 502.289062 185.878906 502.28125 185.851562 502.269531 C 184.371094 501.839844 182.878906 501.410156 181.410156 500.960938 C 179.511719 500.378906 177.628906 499.789062 175.75 499.160156 C 174.738281 498.839844 173.738281 498.5 172.738281 498.148438 C 171.980469 497.890625 171.21875 497.628906 170.460938 497.351562 C 169.730469 497.101562 169.011719 496.839844 168.289062 496.570312 C 166.851562 496.050781 165.421875 495.519531 163.988281 494.960938 C 162.558594 494.410156 161.140625 493.851562 159.71875 493.269531 C 158.308594 492.699219 156.898438 492.109375 155.5 491.511719 C 154.191406 490.949219 152.890625 490.378906 151.589844 489.800781 C 151.421875 489.730469 151.25 489.660156 151.078125 489.570312 C 149.820312 489 148.558594 488.421875 147.300781 487.839844 C 147.25 487.820312 147.210938 487.800781 147.160156 487.769531 C 145.789062 487.121094 144.421875 486.460938 143.058594 485.789062 C 141.691406 485.128906 140.339844 484.441406 138.988281 483.738281 C 138.320312 483.398438 137.640625 483.050781 136.96875 482.691406 C 135.628906 481.988281 134.300781 481.28125 132.96875 480.539062 C 132.300781 480.171875 131.640625 479.800781 130.980469 479.429688 C 129.660156 478.691406 128.351562 477.941406 127.039062 477.179688 C 126.390625 476.800781 125.738281 476.421875 125.089844 476.03125 C 124.441406 475.648438 123.789062 475.261719 123.148438 474.859375 C 122.019531 474.171875 120.910156 473.480469 119.789062 472.78125 C 119.410156 472.550781 119.039062 472.308594 118.671875 472.070312 C 117.601562 471.390625 116.550781 470.699219 115.488281 470.011719 C 114.230469 469.179688 112.988281 468.351562 111.75 467.5 C 110.570312 466.699219 109.398438 465.878906 108.238281 465.070312 C 108.039062 464.929688 107.851562 464.789062 107.660156 464.648438 C 106.78125 464.019531 105.898438 463.390625 105.03125 462.75 C 103.578125 461.691406 102.140625 460.621094 100.71875 459.53125 C 99.609375 458.679688 98.511719 457.820312 97.410156 456.960938 C 97.300781 456.878906 97.199219 456.789062 97.089844 456.699219 C 95.96875 455.820312 94.859375 454.921875 93.761719 454.011719 C 92.628906 453.089844 91.511719 452.148438 90.398438 451.210938 C 90.371094 451.191406 90.339844 451.160156 90.308594 451.128906 C 89.171875 450.160156 88.039062 449.191406 86.921875 448.199219 C 86.921875 448.199219 86.910156 448.199219 86.898438 448.179688 C 85.78125 447.199219 84.671875 446.199219 83.570312 445.191406 C 82.480469 444.199219 81.398438 443.210938 80.328125 442.199219 C 80.308594 442.179688 80.289062 442.160156 80.269531 442.140625 C 79.230469 441.160156 78.199219 440.171875 77.179688 439.171875 C 77.078125 439.078125 76.980469 438.980469 76.878906 438.871094 C 76.050781 438.058594 75.230469 437.238281 74.410156 436.421875 C 74.039062 436.050781 73.660156 435.671875 73.300781 435.289062 C 72.351562 434.328125 71.421875 433.371094 70.5 432.390625 C 69.539062 431.390625 68.589844 430.378906 67.660156 429.359375 C 66.789062 428.421875 65.929688 427.46875 65.089844 426.519531 C 63.941406 425.25 62.808594 423.960938 61.699219 422.660156 L 61.691406 422.648438 C 61.101562 421.960938 60.511719 421.269531 59.941406 420.578125 C 48.878906 407.441406 39.128906 393.179688 30.890625 377.980469 C 27.601562 371.949219 24.558594 365.769531 21.769531 359.449219 C 19.109375 353.441406 16.671875 347.300781 14.46875 341.058594 C 21.128906 339.328125 27.890625 337.871094 34.761719 336.710938 C 47.921875 334.46875 61.449219 333.308594 75.238281 333.308594 C 150.808594 333.308594 218.230469 368.160156 262.320312 422.660156 C 265.800781 426.960938 269.128906 431.371094 272.300781 435.910156 C 280.910156 448.171875 288.398438 461.28125 294.609375 475.078125 C 299.25 485.371094 303.191406 496.039062 306.359375 507.039062 Z M 306.359375 507.039062 " style=" stroke:none;fill-rule:nonzero;fill:rgb(92.941176%,46.666667%,10.588235%);fill-opacity:1;" />
<path d="M 262.320312 422.660156 L 61.699219 422.660156 L 61.691406 422.648438 C 61.101562 421.960938 60.511719 421.269531 59.941406 420.578125 C 48.878906 407.441406 39.128906 393.179688 30.890625 377.980469 C 27.601562 371.949219 24.558594 365.769531 21.769531 359.449219 C 19.109375 353.441406 16.671875 347.300781 14.46875 341.058594 C 20.878906 339.390625 27.390625 337.980469 34 336.839844 C 47.390625 334.519531 61.171875 333.308594 75.238281 333.308594 C 127.308594 333.308594 175.511719 349.859375 214.878906 377.980469 C 232.648438 390.660156 248.609375 405.710938 262.320312 422.660156 Z M 262.320312 422.660156 " style=" stroke:none;fill-rule:nonzero;fill:rgb(0%,62.745098%,25.882353%);fill-opacity:1;" />
<path d="M 179.820312 422.660156 L 61.699219 422.660156 L 61.691406 422.648438 C 61.101562 421.960938 60.511719 421.269531 59.941406 420.578125 C 48.878906 407.441406 39.128906 393.179688 30.890625 377.980469 C 27.601562 371.949219 24.558594 365.769531 21.769531 359.449219 C 19.109375 353.441406 16.671875 347.300781 14.46875 341.058594 C 20.878906 339.390625 27.390625 337.980469 34 336.839844 C 70.210938 343.101562 103.648438 357.460938 132.378906 377.980469 C 150.148438 390.660156 166.109375 405.710938 179.820312 422.660156 Z M 179.820312 422.660156 " style=" stroke:none;fill-rule:nonzero;fill:rgb(42.352941%,86.27451%,17.647059%);fill-opacity:1;" />
<path d="M 306.359375 507.039062 L 306.359375 507.050781 C 290.070312 510.300781 273.230469 512 256 512 C 254.789062 512 253.570312 511.988281 252.359375 511.96875 C 251.148438 511.960938 249.941406 511.929688 248.730469 511.898438 C 247.519531 511.871094 246.320312 511.820312 245.128906 511.769531 C 243.921875 511.71875 242.71875 511.660156 241.53125 511.601562 C 239.121094 511.460938 236.71875 511.300781 234.339844 511.101562 C 233.351562 511.011719 232.359375 510.929688 231.378906 510.828125 C 230.808594 510.78125 230.25 510.71875 229.691406 510.660156 C 228.859375 510.578125 228.039062 510.488281 227.21875 510.398438 C 226.179688 510.28125 225.140625 510.160156 224.101562 510.03125 C 220.429688 509.578125 216.789062 509.039062 213.171875 508.429688 C 212.03125 508.238281 210.890625 508.039062 209.761719 507.828125 C 208.601562 507.621094 207.449219 507.410156 206.308594 507.179688 C 205.011719 506.921875 203.71875 506.660156 202.429688 506.378906 C 201.589844 506.210938 200.761719 506.03125 199.929688 505.839844 C 198.628906 505.550781 197.339844 505.25 196.050781 504.941406 C 194.910156 504.671875 193.789062 504.390625 192.660156 504.101562 C 192.628906 504.089844 192.601562 504.089844 192.578125 504.078125 C 191.578125 503.828125 190.578125 503.570312 189.578125 503.289062 C 188.328125 502.960938 187.089844 502.621094 185.851562 502.269531 C 184.371094 501.839844 182.878906 501.410156 181.410156 500.960938 C 179.988281 500.53125 178.570312 500.078125 177.148438 499.621094 C 177.070312 499.601562 176.988281 499.570312 176.910156 499.539062 C 175.519531 499.089844 174.121094 498.628906 172.738281 498.148438 C 172.699219 498.140625 172.671875 498.128906 172.628906 498.109375 C 171.179688 497.609375 169.730469 497.101562 168.289062 496.570312 C 166.851562 496.050781 165.421875 495.511719 163.988281 494.960938 C 161.128906 493.859375 158.300781 492.710938 155.5 491.511719 C 154.191406 490.949219 152.890625 490.378906 151.589844 489.800781 C 151.421875 489.730469 151.25 489.648438 151.078125 489.570312 C 149.820312 489 148.558594 488.421875 147.300781 487.839844 C 147.261719 487.808594 147.210938 487.789062 147.160156 487.769531 C 145.789062 487.121094 144.421875 486.460938 143.058594 485.789062 C 141.691406 485.121094 140.339844 484.441406 138.988281 483.738281 C 136.289062 482.351562 133.621094 480.921875 130.980469 479.429688 C 129.660156 478.691406 128.351562 477.941406 127.039062 477.179688 C 125.738281 476.421875 124.441406 475.640625 123.148438 474.859375 C 121.910156 474.101562 120.679688 473.339844 119.449219 472.570312 C 119.320312 472.480469 119.179688 472.390625 119.039062 472.308594 C 117.851562 471.550781 116.671875 470.78125 115.488281 470.011719 C 130.339844 461.96875 141.738281 451.910156 170.289062 451.910156 C 217.820312 451.910156 217.820312 479.808594 265.351562 479.808594 C 277.789062 479.808594 286.980469 477.898438 294.609375 475.078125 C 299.25 485.371094 303.191406 496.039062 306.359375 507.039062 Z M 306.359375 507.039062 " style=" stroke:none;fill-rule:nonzero;fill:rgb(65.098039%,22.352941%,7.843137%);fill-opacity:1;" />
</g>
</svg>