<svg transform="scale(-1,1)"  height="512" viewBox="0 0 57 54" width="512" xmlns="http://www.w3.org/2000/svg"><g id="021---Camel" fill="none"><path  d="m9 0-8.11.9c-.50893494.05631511-.89310623.48796825-.89 1v4.2c-.00258325.51547807.38709871.94845802.9 1l11.92 1.17z" fill="#f0c419"/><path  d="m44.5 34.04h-17.26l.38-19.69 10.38.65z" fill="#d25627"/><g fill="#f29c1f"><path  d="m57 54-15-20-.57-2.69 6.57-12.31 4 7z"/><path  d="m22 14 9.1-8.19c.2220093-.19730635.5202382-.28571368.8139103-.24127646.293672.04443721.5523939.21712.7060897.47127646l5.38 8.96-8 1.89z"/><path  d="m22 14c-5.26-10.52-4.87-9.94-5.3-10.15l-7.7-3.85 1 21.58c.0115963.2681658.1305122.5204116.33.7l10.91 9.81z"/></g><path  d="m48 19-6 15-4-19 5 1z" fill="#e57e25"/><path  d="m16 54 6-40 16 1z" fill="#e57e25"/></g></svg>